<?xml version="1.0" encoding="UTF-8"?><svg id="Layer_1" xmlns="http://www.w3.org/2000/svg" viewBox="0 0 1920 170.5"><defs><style>.cls-1{fill:rgba(60,60,60,0);}.cls-2{fill:#111;}.cls-3{opacity:.48;}.cls-3,.cls-4,.cls-5{fill:#3c3c3c;isolation:isolate;}.cls-4{opacity:.36;}.cls-5{opacity:.24;}</style></defs><rect class="cls-2" y="-69.5" width="1920" height="240"/><path class="cls-1" d="m0,170.5V-21.5C17.11-10.12,34.22,1.27,65-4.5c30.78-5.77,75.21-28.69,107-33s50.92,10.01,75,15c24.08,4.99,53.1.66,78,3s45.66,11.36,74,6,64.25-25.08,94-26c29.75-.92,53.34,16.98,73,27s35.38,12.16,64,8c28.62-4.16,70.14-14.64,101-18s51.05.39,70,0,36.64-4.91,65-2,67.38,13.26,102,17,64.85.89,86-3,33.22-8.8,58-8,62.26,7.31,94,5,57.75-13.44,82-14,46.73,9.44,74,9,59.32-11.31,86-13,48,5.8,76,8,62.68-.88,84-5,29.28-9.28,57-8,75.19,9,108,13,50.94,4.29,73,4,48.03-1.14,74-2v192H0Z"/><path class="cls-5" d="m0,170.5V26.5c20.25-1.17,40.5-2.33,70-6s68.26-9.84,100-9,56.46,8.7,83,11,54.88-.96,80,2,47.01,12.15,71,11,50.07-12.64,78-14,57.71,7.39,85,11,52.08,2.06,80-1,58.97-7.62,82-8,38.04,3.44,65,9,65.86,12.86,98,11,57.53-12.9,82-18,48.01-4.28,68-4c19.99.28,36.42,0,64,0s66.29.27,97,3,53.41,7.93,76,11,45.08,4.02,71,0,55.27-13.02,86-14,62.85,6.06,93,6,58.32-7.23,85-13,51.87-10.14,76-3,47.19,25.81,70,31,45.37-3.09,72-8,57.31-6.46,88-8v144H0Z"/><path class="cls-4" d="m0,170.5v-96c28-7.26,56-14.52,86-15s61.99,5.82,85,12,37.02,12.23,63,11,63.91-9.75,89-13,37.34-1.23,62,2,61.73,7.67,93,11,56.75,5.55,84,5,56.26-3.88,87-9,63.2-12.03,85-11,32.92,10,59,17,67.1,12.02,98,6,51.68-23.1,72-23,40.18,17.38,68,20c27.82,2.62,63.59-9.41,96-15s61.46-4.76,87-3,47.55,4.43,70,7,45.33,5.05,72,8,57.14,6.38,83,6,47.11-4.57,77-6,68.43-.1,93,2,35.17,4.95,59-1,60.88-20.72,95-27,65.32-4.08,91,0,45.84,10.04,66,16v96H0Z"/><path class="cls-3" d="m0,170.5v-48c32.58,6.92,65.16,13.83,92,8s47.95-24.41,75-24,60.05,19.8,84,29c23.95,9.2,38.86,8.23,65-1s63.53-26.7,96-30,60.04,7.56,79,11,29.31-.53,55-3,66.73-3.43,99-4,55.76-.76,75,4,34.21,14.46,66,14,80.39-11.1,108-14,34.24,1.93,56,6,58.67,7.36,87,6,48.08-7.38,72-13,51.99-10.83,80-7,55.95,16.7,82,18,50.21-8.97,79-15,62.22-7.81,87,0,40.91,25.2,69,31,68.16.02,101-7,58.46-15.27,85-14,53.99,12.07,78,11,44.57-14.02,69-17,52.71,4.01,81,11v48H0Z"/></svg>