<svg width="1920" height="240" viewBox="0 0 1920 240" xmlns="http://www.w3.org/2000/svg"><rect width="1920" height="240" fill="#111111"/><path d="M 0,240 C 0,240 0,48 0,48 C 17.112325090594922,59.38496229418864 34.224650181189844,70.76992458837728 65,65 C 95.77534981881016,59.230075411622714 140.2137243658356,36.30526394067952 172,32 C 203.7862756341644,27.694736059320483 222.92045235546794,42.00901964890465 247,47 C 271.07954764453206,51.99098035109535 300.10446621229255,47.658657463701864 325,50 C 349.89553378770745,52.341342536298136 370.66168279536197,61.35635049628789 399,56 C 427.33831720463803,50.64364950371211 463.24880260625946,30.91594055114662 493,30 C 522.7511973937405,29.08405944885338 546.3431067795999,46.979887299125664 566,57 C 585.6568932204001,67.02011270087434 601.3787702753406,69.16451025235074 630,65 C 658.6212297246594,60.83548974764926 700.1418121190377,50.36207169147138 731,47 C 761.8581878809623,43.63792830852862 782.0539812485086,47.38720298176375 801,47 C 819.9460187514914,46.61279701823625 837.6422628869276,42.0891163814736 866,45 C 894.3577371130724,47.9108836185264 933.3769672037809,58.25633149234186 968,62 C 1002.6230327962191,65.74366850765814 1032.8498682979493,62.88555764915899 1054,59 C 1075.1501317020507,55.11444235084101 1087.2235596044209,50.201437911022204 1112,51 C 1136.7764403955791,51.798562088977796 1174.2558932843672,58.30869070675217 1206,56 C 1237.7441067156328,53.69130929324783 1263.7528672581102,42.56379926196914 1288,42 C 1312.2471327418898,41.43620073803086 1334.7326376831913,51.43611224537129 1362,51 C 1389.2673623168087,50.56388775462871 1421.3165820091249,39.69175175654569 1448,38 C 1474.6834179908751,36.30824824345431 1496.0010342803084,43.796880728445934 1524,46 C 1551.9989657196916,48.203119271554066 1586.679280869641,45.12072532967057 1608,41 C 1629.320719130359,36.87927467032943 1637.2818422411272,31.720217952871806 1665,33 C 1692.7181577588728,34.279782047128194 1740.1933501658507,41.998402858842205 1773,46 C 1805.8066498341493,50.001597141157795 1823.9447570954712,50.28617061175937 1846,50 C 1868.0552429045288,49.71382938824063 1894.0276214522644,48.85691469412032 1920,48 C 1920,48 1920,240 1920,240 Z" fill="#3c3c3c" opacity="0.0"/><path d="M 0,240 C 0,240 0,96 0,96 C 20.248653905849658,94.83466772472026 40.497307811699315,93.66933544944052 70,90 C 99.50269218830068,86.33066455055948 138.2594226590524,80.15732592695818 170,81 C 201.7405773409476,81.84267407304182 226.4650015520911,89.70136084272677 253,92 C 279.5349984479089,94.29863915727323 307.88057113258316,91.03723070213475 333,94 C 358.11942886741684,96.96276929786525 380.0127139175764,106.1497163487342 404,105 C 427.9872860824236,103.8502836512658 454.0685731971112,92.36390390292844 482,91 C 509.9314268028888,89.63609609707156 539.712993293979,98.39466803955209 567,102 C 594.287006706021,105.60533196044791 619.0794536269727,104.05742393886327 647,101 C 674.9205463730273,97.94257606113673 705.9691921981298,93.37563620499483 729,93 C 752.0308078018702,92.62436379500517 767.0437775805082,96.44003124115737 794,102 C 820.9562224194918,107.55996875884263 859.8556974798374,114.86423883037568 892,113 C 924.1443025201626,111.13576116962432 949.5334325001422,100.10301343733987 974,95 C 998.4665674998578,89.89698656266013 1022.0105725195933,90.72370742026486 1042,91 C 1061.9894274804067,91.27629257973514 1078.4242774214845,91.0021568816007 1106,91 C 1133.5757225785155,90.9978431183993 1172.2923177944683,91.26766505333232 1203,94 C 1233.7076822055317,96.73233494666768 1256.406451400642,101.92718290507001 1279,105 C 1301.593548599358,108.07281709492999 1324.0818766029633,109.02360332638769 1350,105 C 1375.9181233970367,100.97639667361231 1405.2660421875041,91.97840378937926 1436,91 C 1466.7339578124959,90.02159621062074 1498.8539546470197,97.06278151609526 1529,97 C 1559.1460453529803,96.93721848390474 1587.3181392244173,89.77047014623967 1614,84 C 1640.6818607755827,78.22952985376033 1665.873488455311,73.85533789894608 1690,81 C 1714.126511544689,88.14466210105392 1737.1879069543395,106.80817825797605 1760,112 C 1782.8120930456605,117.19182174202395 1805.3748837273315,108.91194906914968 1832,104 C 1858.6251162726685,99.08805093085032 1889.3125581363342,97.54402546542516 1920,96 C 1920,96 1920,240 1920,240 Z" fill="#3c3c3c" opacity="0.24"/><path d="M 0,240 C 0,240 0,144 0,144 C 28.000942723978042,136.73969711828306 56.001885447956084,129.4793942365661 86,129 C 115.99811455204392,128.5206057634339 147.99340093215366,134.82212017201863 171,141 C 194.00659906784634,147.17787982798137 208.02451082342935,153.23212507535936 234,152 C 259.97548917657065,150.76787492464064 297.908555774129,142.24937952654392 323,139 C 348.091444225871,135.75062047345608 360.34126608005454,137.7703568184649 385,141 C 409.65873391994546,144.2296431815351 446.7263799056526,148.6691931995964 478,152 C 509.2736200943474,155.3308068004036 534.7532142973348,157.55287038314938 562,157 C 589.2467857026652,156.44712961685062 618.2607629050082,153.11932526780606 649,148 C 679.7392370949918,142.88067473219394 712.2037340826326,135.9698285456264 734,137 C 755.7962659173674,138.0301714543736 766.9243007644615,147.00136054968834 793,154 C 819.0756992355385,160.99863945031166 860.0990628595215,166.02472925562012 891,160 C 921.9009371404785,153.97527074437988 942.679447797453,136.89972242783122 963,137 C 983.320552202547,137.10027757216878 1003.1831459506666,154.37638103305497 1031,157 C 1058.8168540493334,159.62361896694503 1094.58796839988,147.5947534399489 1127,142 C 1159.41203160012,136.4052465600511 1188.4649804498124,137.24460520714933 1214,139 C 1239.5350195501876,140.75539479285067 1261.5521098008699,143.42682573145376 1284,146 C 1306.4478901991301,148.57317426854624 1329.3265803467086,151.04809186703565 1356,154 C 1382.6734196532914,156.95190813296435 1413.1415688122959,160.38080680040358 1439,160 C 1464.8584311877041,159.61919319959642 1486.1071444041072,155.42868093135004 1516,154 C 1545.8928555958928,152.57131906864996 1584.429853571275,153.90446947419625 1609,156 C 1633.570146428725,158.09553052580375 1644.1734413107922,160.9534411718649 1668,155 C 1691.8265586892078,149.0465588281351 1728.876381185556,134.28176583834406 1763,128 C 1797.123618814444,121.71823416165594 1828.3210339469838,123.91949547475883 1854,128 C 1879.6789660530162,132.08050452524117 1899.839483026508,138.04025226262058 1920,144 C 1920,144 1920,240 1920,240 Z" fill="#3c3c3c" opacity="0.36"/><path d="M 0,240 C 0,240 0,192 0,192 C 32.57879936054178,198.91520577207794 65.15759872108356,205.83041154415588 92,200 C 118.84240127891644,194.16958845584412 139.94840447620757,175.59355959545442 167,176 C 194.05159552379243,176.40644040454558 227.04878337408616,195.79535007402643 251,205 C 274.95121662591384,214.20464992597357 289.8564620274478,213.22504010843988 316,204 C 342.1435379725522,194.77495989156012 379.5253685161228,177.304489492214 412,174 C 444.4746314838772,170.695510507786 472.0420639080613,181.5570019227041 491,185 C 509.9579360919387,188.4429980772959 520.3063758516317,184.46750281696958 546,182 C 571.6936241483683,179.53249718303042 612.7324326854119,178.57298680941773 645,178 C 677.2675673145881,177.42701319058227 700.7638934067205,177.2405499453596 720,182 C 739.2361065932795,186.7594500546404 754.2119936877061,196.46481340914397 786,196 C 817.7880063122939,195.53518659085603 866.388131842455,184.90019641806455 894,182 C 921.611868157545,179.09980358193545 928.235478942474,183.93440091859782 950,188 C 971.764521057526,192.06559908140218 1008.6699523876498,195.3621999075442 1037,194 C 1065.3300476123502,192.6378000924558 1085.0847115069266,186.61679945122535 1109,181 C 1132.9152884930734,175.38320054877465 1160.991201584644,170.17060228755432 1189,174 C 1217.008798415356,177.82939771244568 1244.9504821544976,190.70079139855739 1271,192 C 1297.0495178455024,193.29920860144261 1321.2068697973652,183.02623211821617 1350,177 C 1378.7931302026348,170.97376788178383 1412.2220386560414,169.1942801285779 1437,177 C 1461.7779613439586,184.8057198714221 1477.90497557847,202.19664736747208 1506,208 C 1534.09502442153,213.80335263252792 1574.1580590300784,208.01913040153374 1607,201 C 1639.8419409699216,193.98086959846626 1665.462788301216,185.72683102639303 1692,187 C 1718.537211698784,188.27316897360697 1745.9907877650573,199.0735454928942 1770,198 C 1794.0092122349427,196.9264545071058 1814.574060638555,183.97898700203024 1839,181 C 1863.425939361445,178.02101299796976 1891.7129696807224,185.01050649898488 1920,192 C 1920,192 1920,240 1920,240 Z" fill="#3c3c3c" opacity="0.48"/></svg>