<svg width="1920" height="240" viewBox="0 0 1920 240" xmlns="http://www.w3.org/2000/svg"><rect width="1920" height="240" fill="#3c3c3c"/><path d="M 0,240 C 0,240 0,48 0,48 C 33.881637154692044,39.72831733383478 67.76327430938409,31.45663466766957 94,35 C 120.23672569061591,38.54336533233043 138.8285399171557,53.90177866315649 162,56 C 185.1714600828443,58.09822133684351 212.9225660219932,46.93625067970447 236,40 C 259.0774339780068,33.06374932029553 277.4811959948716,30.353218618025636 306,32 C 334.5188040051284,33.646781381974364 373.15264999852053,39.65087484819298 401,41 C 428.84735000147947,42.34912515180702 445.90820401104645,39.04328198920246 475,38 C 504.09179598895355,36.95671801079754 545.2145339572935,38.175997194997166 573,42 C 600.7854660427065,45.824002805002834 615.2336601597796,52.25272923080887 635,57 C 654.7663398402204,61.74727076919113 679.8508254035881,64.81308588176736 709,63 C 738.1491745964119,61.18691411823264 771.363038225868,54.49492724212169 796,50 C 820.636961774132,45.50507275787831 836.69702169294,43.20720514974592 866,43 C 895.30297830706,42.79279485025408 937.8488750023724,44.67625215889464 972,47 C 1006.1511249976276,49.32374784110536 1031.9074782975704,52.0877862146755 1051,57 C 1070.0925217024296,61.9122137853245 1082.5212118073457,68.97260298240334 1109,64 C 1135.4787881926543,59.02739701759665 1176.0076744730466,42.021801855711054 1208,38 C 1239.9923255269534,33.978198144288946 1263.4480903004683,42.94018959475245 1287,41 C 1310.5519096995317,39.05981040524755 1334.1999643250804,26.217439765279167 1357,31 C 1379.8000356749196,35.78256023472083 1401.75205239921,58.19005134413088 1426,64 C 1450.24794760079,69.80994865586912 1476.7918260780798,59.02235485819735 1508,48 C 1539.2081739219202,36.97764514180265 1575.0806432884704,25.720529223079716 1606,30 C 1636.9193567115296,34.279470776920284 1662.885600768039,54.09552824948379 1686,64 C 1709.114399231961,73.90447175051621 1729.376953639374,73.89735777898514 1758,64 C 1786.623046360626,54.10264222101486 1823.6065846744646,34.315040634575666 1852,30 C 1880.3934153255354,25.68495936542433 1900.1967076627677,36.84247968271217 1920,48 C 1920,48 1920,240 1920,240 Z" fill="#111111" opacity="0.12"/><path d="M 0,240 C 0,240 0,96 0,96 C 28.694803992134815,104.8916788368746 57.38960798426963,113.78335767374922 86,109 C 114.61039201573037,104.21664232625078 143.13637205505634,85.75824814187776 173,84 C 202.86362794494366,82.24175185812224 234.0649037955049,97.18364975873976 254,105 C 273.9350962044951,112.81635024126024 282.60401276292407,113.50715282316321 309,105 C 335.39598723707593,96.49284717683679 379.5190451527987,78.78773894860738 409,82 C 438.4809548472013,85.21226105139262 453.31980662588114,109.34189138240724 475,112 C 496.68019337411886,114.65810861759276 525.2017283436768,95.84469552176365 551,91 C 576.7982716563232,86.15530447823635 599.8732799994117,95.27932653053814 630,96 C 660.1267200005883,96.72067346946186 697.3051516586767,89.03799835608379 728,85 C 758.6948483413233,80.96200164391621 782.9061133658815,80.5686800451267 808,89 C 833.0938866341185,97.4313199548733 859.0703948777974,114.68728146340943 885,112 C 910.9296051222026,109.31271853659057 936.8123071229289,86.68219410123554 966,82 C 995.1876928770711,77.31780589876446 1027.680376630487,90.58394213164837 1052,93 C 1076.319623369513,95.41605786835163 1092.466186355123,86.98203737217102 1113,90 C 1133.533813644877,93.01796262782898 1158.4548779490212,107.48790837966752 1186,110 C 1213.5451220509788,112.51209162033248 1243.714301848792,103.06632910915894 1270,99 C 1296.285698151208,94.93367089084106 1318.6879146558108,96.24677518369668 1349,98 C 1379.3120853441892,99.75322481630332 1417.534039527965,101.94657015605429 1449,107 C 1480.465960472035,112.05342984394571 1505.175927232329,119.96694419208612 1530,113 C 1554.824072767671,106.03305580791388 1579.7622515427186,84.18565307560122 1605,82 C 1630.2377484572814,79.81434692439878 1655.7750665967972,97.29044350550895 1679,105 C 1702.2249334032028,112.70955649449105 1723.1374820700933,110.65257290236298 1750,103 C 1776.8625179299067,95.34742709763702 1809.6750051228305,82.09926488503915 1839,80 C 1868.3249948771695,77.90073511496085 1894.1624974385848,86.95036755748043 1920,96 C 1920,96 1920,240 1920,240 Z" fill="#111111" opacity="0.24"/><path d="M 0,240 C 0,240 0,144 0,144 C 24.94759175099911,137.72453778757506 49.89518350199822,131.44907557515015 78,132 C 106.10481649800178,132.55092442484985 137.36685774300625,139.92823548697447 165,145 C 192.63314225699375,150.07176451302553 216.6373855259768,152.837982476952 242,150 C 267.3626144740232,147.162017523048 294.0836001530865,138.7198346052176 322,134 C 349.9163998469135,129.2801653947824 379.0282138616773,128.2826791021777 406,127 C 432.9717861383227,125.7173208978223 457.8035444002046,124.14944898607169 480,129 C 502.1964555997954,133.8505510139283 521.7576085375044,145.11952495353552 547,144 C 572.2423914624956,142.88047504646448 603.1660214497779,129.37245119978624 633,131 C 662.8339785502221,132.62754880021376 691.5783056633838,149.3906702473195 722,151 C 752.4216943366162,152.6093297526805 784.5207558966866,139.0648678109358 811,140 C 837.4792441033134,140.9351321890642 858.3386707498695,156.3498585089374 883,154 C 907.6613292501305,151.6501414910626 936.1245611038357,131.53569815331474 963,130 C 989.8754388961643,128.46430184668526 1015.1630848347879,145.5073488778037 1039,154 C 1062.836915165212,162.4926511221963 1085.223099557013,162.43490633547046 1110,159 C 1134.776900442987,155.56509366452954 1161.9445169371588,148.7530257803144 1194,146 C 1226.0554830628412,143.2469742196856 1262.998832694351,144.55299054327205 1289,148 C 1315.001167305649,151.44700945672795 1330.0601522854379,157.03501204659733 1353,155 C 1375.9398477145621,152.96498795340267 1406.7605581638977,143.30696127033855 1434,141 C 1461.2394418361023,138.69303872966145 1484.8976150589704,143.73714287204845 1516,146 C 1547.1023849410296,148.26285712795155 1585.6489816002206,147.74446724146767 1613,150 C 1640.3510183997794,152.25553275853233 1656.506458540147,157.28498816208082 1677,160 C 1697.493541459853,162.71501183791918 1722.325184239191,163.115580110209 1753,156 C 1783.674815760809,148.884419889791 1820.1928045030882,134.25269139708314 1849,131 C 1877.8071954969118,127.74730860291686 1898.903597748456,135.87365430145843 1920,144 C 1920,144 1920,240 1920,240 Z" fill="#111111" opacity="0.36"/><path d="M 0,240 C 0,240 0,192 0,192 C 26.382613765234417,197.24628038601065 52.765227530468835,202.49256077202128 80,206 C 107.23477246953117,209.50743922797872 135.32170364335906,211.2760372979255 163,206 C 190.67829635664094,200.7239627020745 217.94795789609492,188.4032900362768 243,186 C 268.0520421039051,183.5967099637232 290.8864647722612,191.11080255696743 320,194 C 349.1135352277388,196.88919744303257 384.5061830148602,195.15349973585356 407,190 C 429.4938169851398,184.84650026414644 439.08880316829817,176.27519849961828 468,179 C 496.91119683170183,181.72480150038172 545.138604311947,195.74570626567325 572,204 C 598.861395688053,212.25429373432675 604.3567795839139,214.74197643768872 626,208 C 647.6432204160861,201.25802356231128 685.4342773523978,185.28638798357184 719,181 C 752.5657226476022,176.71361201642816 781.9061110064948,184.11247162802397 804,182 C 826.0938889935052,179.88752837197603 840.941278621623,168.26372550433223 868,175 C 895.058721378377,181.73627449566777 934.3287745070127,206.8326263546471 962,207 C 989.6712254929873,207.1673736453529 1005.7436233503256,182.40576907707947 1028,179 C 1050.2563766496744,175.59423092292053 1078.6967320916851,193.54429733703512 1109,200 C 1139.3032679083149,206.45570266296488 1171.4694482829339,201.41704157478003 1205,198 C 1238.5305517170661,194.58295842521997 1273.425474776579,192.78753636384477 1294,194 C 1314.574525223421,195.21246363615523 1320.8286526107502,199.43281296984082 1346,198 C 1371.1713473892498,196.56718703015918 1415.2599147804196,189.4812117567919 1444,193 C 1472.7400852195804,196.5187882432081 1486.1316882675708,210.64234000299138 1510,208 C 1533.8683117324292,205.35765999700862 1568.2133321492972,185.94942823124262 1598,185 C 1627.7866678507028,184.05057176875738 1653.01498313524,201.55994707203806 1677,205 C 1700.98501686476,208.44005292796194 1723.7267353097432,197.81078348060515 1749,189 C 1774.2732646902568,180.18921651939485 1802.0780756257875,173.1969190055414 1831,174 C 1859.9219243742125,174.8030809944586 1889.9609621871064,183.4015404972293 1920,192 C 1920,192 1920,240 1920,240 Z" fill="#111111" opacity="1"/></svg>